<?xml version="1.0" encoding="UTF-8" standalone="no"?>
<!DOCTYPE svg PUBLIC "-//W3C//DTD SVG 1.1//EN" "http://www.w3.org/Graphics/SVG/1.1/DTD/svg11.dtd">
<svg width="100%" height="100%" viewBox="0 0 385 228" version="1.1" xmlns="http://www.w3.org/2000/svg" xmlns:xlink="http://www.w3.org/1999/xlink" xml:space="preserve" xmlns:serif="http://www.serif.com/" style="fill-rule:evenodd;clip-rule:evenodd;stroke-linejoin:round;stroke-miterlimit:2;">
    <g transform="matrix(1,0,0,1,0.00700646,0.00444444)">
        <path d="M384,134.63L384,133.91C383.958,133.677 383.905,133.447 383.84,133.22C383.807,133.024 383.764,132.831 383.71,132.64C383.582,132.297 383.432,131.963 383.26,131.64C383.229,131.582 383.202,131.522 383.18,131.46L355.18,82.58C354.746,81.831 354.172,81.173 353.49,80.64C352.809,80.114 352.031,79.726 351.2,79.5L232.43,47.26L237,31.9L237,31.79C237.184,31.11 237.259,30.404 237.22,29.7L237.22,29.37C237.175,28.799 237.05,28.237 236.85,27.7C236.815,27.6 236.772,27.503 236.72,27.41L236.57,27.1C236.271,26.474 235.872,25.899 235.39,25.4L235.25,25.28C234.7,24.75 234.064,24.318 233.37,24L182.07,0.6C181.668,0.417 181.25,0.273 180.82,0.17C180.59,0.12 180.35,0.11 180.12,0.08C179.89,0.05 179.72,0.01 179.53,-0C179.34,-0.01 179.19,-0 179.02,-0C178.85,-0 178.49,-0 178.23,0.06C177.811,0.142 177.4,0.259 177,0.41L27.69,56.17C26.899,56.469 26.172,56.917 25.55,57.49C25.533,57.512 25.512,57.533 25.49,57.55C24.863,58.144 24.358,58.854 24,59.64L0.61,110.88C0.276,111.585 0.07,112.343 -0,113.12C0.005,113.17 0.005,113.22 0,113.27C-0.032,113.964 0.046,114.66 0.23,115.33C0.23,115.44 0.23,115.55 0.32,115.66C0.341,115.769 0.371,115.876 0.41,115.98C0.58,116.374 0.791,116.75 1.04,117.1C1.134,117.302 1.245,117.496 1.37,117.68C1.822,118.271 2.373,118.779 3,119.18C3.021,119.206 3.044,119.229 3.07,119.25L170.78,226.73C170.86,226.78 170.95,226.79 171.03,226.84C171.266,226.974 171.51,227.094 171.76,227.2L172.21,227.37C172.353,227.429 172.5,227.479 172.65,227.52C173.201,227.674 173.768,227.758 174.34,227.77C174.58,227.785 174.82,227.785 175.06,227.77C175.399,227.723 175.733,227.649 176.06,227.55C176.137,227.555 176.213,227.555 176.29,227.55L176.54,227.45L176.63,227.45L176.92,227.29C177.226,227.16 177.524,227.01 177.81,226.84L178.03,226.71C178.12,226.65 178.19,226.57 178.28,226.5C178.471,226.361 178.652,226.207 178.82,226.04C178.91,225.95 179.01,225.88 179.09,225.79C179.17,225.7 179.21,225.65 179.27,225.58C179.33,225.51 179.53,225.26 179.65,225.09L179.95,224.65L180.08,224.42C180.157,224.278 180.224,224.131 180.28,223.98C180.37,223.78 180.46,223.59 180.53,223.39C180.6,223.19 180.6,223.24 180.62,223.15C180.64,223.06 180.62,223.15 180.62,223.15L195.81,171.51L225,222.1C225,222.1 225.07,222.16 225.08,222.2C225.09,222.24 225.23,222.46 225.32,222.57C225.463,222.774 225.62,222.968 225.79,223.15C225.9,223.28 226.01,223.43 226.13,223.55C226.25,223.67 226.45,223.82 226.61,223.94C226.77,224.06 226.75,224.06 226.84,224.12C226.92,224.18 226.99,224.25 227.08,224.31C227.567,224.628 228.095,224.877 228.65,225.05C228.745,225.089 228.841,225.123 228.94,225.15L229.11,225.15C229.623,225.282 230.15,225.353 230.68,225.36L231.05,225.36C231.367,225.336 231.681,225.286 231.99,225.21C232.094,225.199 232.198,225.182 232.3,225.16C232.783,225.045 233.25,224.871 233.69,224.64C233.748,224.603 233.808,224.569 233.87,224.54L233.97,224.49L380.72,140.5C380.9,140.4 381.04,140.26 381.21,140.15C381.321,140.079 381.427,140.002 381.53,139.92C382.019,139.533 382.45,139.079 382.81,138.57C382.869,138.49 382.923,138.407 382.97,138.32C383.581,137.379 383.946,136.299 384.03,135.18C384.03,134.996 384.02,134.813 384,134.63ZM332.18,88.08L303,104.82L286.23,75.61L332.18,88.08ZM286.77,103.28L240.82,90.81L270,74.06L286.77,103.28ZM33.31,71.19L63.94,85.19L19.33,101.83L33.31,71.19ZM213.22,29.41L168.61,46.07L182.61,15.43L213.22,29.41ZM150.28,67.09L164.78,195.48L91.57,89L150.28,67.09ZM94,74L108,43.37L138.64,57.37L94,74ZM152.64,49.1L122,35.13L166.61,18.46L152.64,49.1ZM78,77L47.36,63L92,46.34L78,77ZM78.74,93.83L150.25,197.83L21.4,115.23L78.74,93.83ZM177.26,187.73L163.1,62.3L220.45,40.88L177.26,187.73ZM201.11,153.73L217.27,98.73L222.53,191.08L201.11,153.73ZM226.11,83.97L223.16,78.85L228.68,60L255.29,67.22L226.11,83.97ZM230.8,101.85L289.93,117.85L236.3,198.51L230.8,101.85ZM251.91,199.07L303.43,121.56L360.2,137L251.91,199.07ZM317.77,111.69L346.97,94.94L363.72,124.15L317.77,111.69Z" style="fill-rule:nonzero;"/>
    </g>
</svg>
